<?xml version="1.0" encoding="UTF-8"?><svg id="Layer_2" xmlns="http://www.w3.org/2000/svg" viewBox="0 0 184.07 50"><defs><style>.cls-1{letter-spacing:-.03em;}.cls-2{letter-spacing:0em;}.cls-3{font-family:NimbusSan-Reg, 'Nimbus Sans';font-size:11.96px;}.cls-3,.cls-4{fill:#151a26;}.cls-5{letter-spacing:-.03em;}.cls-6{letter-spacing:0em;}.cls-7{letter-spacing:0em;}.cls-8{letter-spacing:-.03em;}.cls-9{letter-spacing:0em;}.cls-10{letter-spacing:-.01em;}.cls-11{letter-spacing:0em;}.cls-12{letter-spacing:0em;}.cls-13{letter-spacing:0em;}.cls-14{letter-spacing:-.02em;}.cls-4{font-family:MinionPro-BoldDisp, 'Minion Pro';font-size:35.44px;}.cls-15{letter-spacing:.02em;}.cls-16{letter-spacing:-.03em;}.cls-17{letter-spacing:-.02em;}.cls-18{letter-spacing:-.03em;}.cls-19{letter-spacing:0em;}.cls-20{letter-spacing:0em;}.cls-21{letter-spacing:-.06em;}.cls-22{letter-spacing:0em;}</style></defs><g id="Layer_1-2"><text class="cls-4" transform="translate(0 29.24)"><tspan class="cls-18" x="0" y="0">P</tspan><tspan class="cls-10" x="18.89" y="0">a</tspan><tspan class="cls-12" x="33.7" y="0">u</tspan><tspan x="52.48" y="0">lina </tspan><tspan class="cls-16" x="111.63" y="0">J</tspan><tspan class="cls-19" x="122.23" y="0">a</tspan><tspan class="cls-2" x="137.22" y="0">n</tspan><tspan class="cls-9" x="156.1" y="0">i</tspan><tspan x="166.06" y="0">k</tspan></text><text class="cls-3" transform="translate(0 47.01)"><tspan class="cls-13" x="0" y="0">P</tspan><tspan class="cls-17" x="7.1" y="0">S</tspan><tspan class="cls-5" x="14.52" y="0">Y</tspan><tspan class="cls-7" x="21.11" y="0">C</tspan><tspan x="29.33" y="0">HO</tspan><tspan class="cls-8" x="46.42" y="0">L</tspan><tspan x="52.58" y="0">OG </tspan><tspan class="cls-11" x="73.66" y="0">P</tspan><tspan class="cls-17" x="80.76" y="0">S</tspan><tspan class="cls-1" x="88.18" y="0">Y</tspan><tspan class="cls-7" x="94.77" y="0">C</tspan><tspan x="102.99" y="0">H</tspan><tspan class="cls-14" x="111.15" y="0">O</tspan><tspan class="cls-6" x="119.83" y="0">T</tspan><tspan x="126.25" y="0">E</tspan><tspan class="cls-15" x="133.44" y="0">R</tspan><tspan x="141.36" y="0">A</tspan><tspan class="cls-20" x="148.69" y="0">P</tspan><tspan x="155.75" y="0">E</tspan><tspan class="cls-22" x="162.94" y="0">U</tspan><tspan class="cls-21" x="171.14" y="0">T</tspan><tspan x="176.74" y="0">A</tspan></text></g></svg>